<?xml version="1.0" encoding="UTF-8"?>
<svg id="Capa_2" data-name="Capa 2" xmlns="http://www.w3.org/2000/svg" viewBox="0 0 177.25 174.83">
  <defs>
    <style>
      .cls-1 {
        fill: #fff;
      }

      .cls-2 {
        fill: #4b9cf9;
      }
    </style>
  </defs>
  <g id="Capa_1-2" data-name="Capa 1">
    <g>
      <path class="cls-1" d="m111.54,52.18c-.61-.11-1.21-.21-1.82-.32h-4.52c-5.29.75-9.69,3.34-13.71,6.68-.58.48-1.15.59-1.86.42-1.51-.36-2.88-1.03-4.22-1.77-2.89-1.59-5.72-3.31-8.89-4.33-1.44-.46-2.92-.7-4.38-1.01h-4.68c-2.74.43-5.42,1.09-7.88,2.42-6.57,3.55-10.61,8.96-12.02,16.32-.08.42-.17.84-.26,1.26v5.16c.39,2.95.79,5.91,1.41,8.82,2.55,12.1,5.87,23.95,11.13,35.19,1.65,3.54,3.52,6.96,6.21,9.85,1.55,1.66,3.31,3,5.59,3.47,2.54.52,4.62-.27,6.24-2.25,1.4-1.71,2.02-3.78,2.54-5.87.98-3.96,1.5-8.02,2.41-12,.51-2.2,1.06-4.39,2.11-6.41.78-1.49,1.78-2.78,3.63-2.8,1.89-.01,2.92,1.28,3.69,2.82,1.5,2.96,2.08,6.2,2.73,9.41.75,3.71,1.21,7.48,2.4,11.09.35,1.08.8,2.11,1.41,3.07,1.86,2.89,4.98,3.86,8.16,2.53,2.74-1.15,4.61-3.29,6.27-5.64,2.46-3.49,4.3-7.32,5.92-11.25,4.58-11.12,7.79-22.65,9.93-34.47.51-2.8.89-5.62.87-8.48-.06-10.52-8.05-20.04-18.41-21.9Z"/>
      <path class="cls-2" d="m171.73,67.66l-26.62-10.43,4.28-28.26c.97-6.43-5.2-11.6-11.36-9.53l-27.1,9.12-14.9-24.39c-3.39-5.55-11.44-5.55-14.83,0l-14.9,24.4-27.1-9.12c-6.16-2.08-12.33,3.1-11.36,9.53l4.28,28.26-26.62,10.43c-6.05,2.37-7.45,10.3-2.58,14.6l21.45,18.91-13.69,25.1c-3.11,5.71.92,12.68,7.42,12.84l28.58.7,5.65,28.03c1.29,6.37,8.85,9.13,13.94,5.07l22.34-17.84h0s22.34,17.83,22.34,17.83c5.08,4.05,12.65,1.3,13.94-5.07l5.65-28.03,28.58-.7c6.5-.16,10.52-7.13,7.41-12.84l-13.69-25.1,21.45-18.91c4.87-4.3,3.48-12.23-2.58-14.6Zm-42.65,14.9c-2.14,11.82-5.34,23.35-9.93,34.47-1.62,3.93-3.45,7.76-5.92,11.25-1.66,2.35-3.53,4.49-6.27,5.64-3.17,1.33-6.3.36-8.16-2.53-.61-.96-1.06-1.99-1.41-3.07-1.19-3.61-1.64-7.39-2.4-11.09-.65-3.21-1.24-6.44-2.73-9.41-.77-1.53-1.81-2.83-3.69-2.82-1.85.01-2.85,1.3-3.63,2.8-1.05,2.02-1.6,4.21-2.11,6.41-.91,3.98-1.43,8.04-2.41,12-.52,2.09-1.14,4.16-2.54,5.87-1.62,1.98-3.7,2.78-6.24,2.25-2.29-.47-4.05-1.81-5.59-3.47-2.69-2.89-4.56-6.31-6.21-9.85-5.25-11.24-8.58-23.09-11.13-35.19-.61-2.92-1.02-5.87-1.41-8.82v-5.16c.09-.42.18-.84.26-1.26,1.4-7.36,5.45-12.77,12.02-16.32,2.46-1.33,5.14-1.99,7.88-2.42h4.68c1.47.31,2.95.55,4.38,1.01,3.17,1.02,6,2.74,8.89,4.33,1.34.74,2.71,1.4,4.22,1.77.71.17,1.28.06,1.86-.42,4.02-3.34,8.42-5.93,13.71-6.68h4.52c.61.11,1.21.21,1.82.32,10.36,1.86,18.35,11.38,18.41,21.9.02,2.86-.37,5.68-.87,8.48Z"/>
    </g>
  </g>
</svg>